<mxfile host="app.diagrams.net" agent="Mozilla/5.0 (Windows NT 10.0; Win64; x64) AppleWebKit/537.36 (KHTML, like Gecko) Chrome/139.0.0.0 Safari/537.36" version="28.1.1">
  <diagram name="Page-1" id="u-0rtz-0OA4a21EB5pkl">
    <mxGraphModel dx="1048" dy="601" grid="1" gridSize="10" guides="1" tooltips="1" connect="1" arrows="0" fold="1" page="1" pageScale="1" pageWidth="827" pageHeight="1169" background="light-dark(#FFFFFF,#000000)" math="0" shadow="0">
      <root>
        <mxCell id="0" />
        <mxCell id="1" parent="0" />
        <mxCell id="0G7DkslzxkNjGT_rTtla-2" value="" style="shape=umlLifeline;perimeter=lifelinePerimeter;whiteSpace=wrap;html=1;container=1;dropTarget=0;collapsible=0;recursiveResize=0;outlineConnect=0;portConstraint=eastwest;newEdgeStyle={&quot;curved&quot;:0,&quot;rounded&quot;:0};participant=umlActor;" vertex="1" parent="1">
          <mxGeometry x="10" y="25" width="20" height="795" as="geometry" />
        </mxCell>
        <mxCell id="0G7DkslzxkNjGT_rTtla-3" value="React JS App" style="shape=umlLifeline;perimeter=lifelinePerimeter;whiteSpace=wrap;html=1;container=1;dropTarget=0;collapsible=0;recursiveResize=0;outlineConnect=0;portConstraint=eastwest;newEdgeStyle={&quot;curved&quot;:0,&quot;rounded&quot;:0};" vertex="1" parent="1">
          <mxGeometry x="220" y="20" width="100" height="800" as="geometry" />
        </mxCell>
        <mxCell id="0G7DkslzxkNjGT_rTtla-4" value="Q-Learning Controller" style="shape=umlLifeline;perimeter=lifelinePerimeter;whiteSpace=wrap;html=1;container=1;dropTarget=0;collapsible=0;recursiveResize=0;outlineConnect=0;portConstraint=eastwest;newEdgeStyle={&quot;curved&quot;:0,&quot;rounded&quot;:0};" vertex="1" parent="1">
          <mxGeometry x="540" y="20" width="100" height="800" as="geometry" />
        </mxCell>
        <mxCell id="0G7DkslzxkNjGT_rTtla-5" value="AgentConfig" style="shape=umlLifeline;perimeter=lifelinePerimeter;whiteSpace=wrap;html=1;container=1;dropTarget=0;collapsible=0;recursiveResize=0;outlineConnect=0;portConstraint=eastwest;newEdgeStyle={&quot;curved&quot;:0,&quot;rounded&quot;:0};" vertex="1" parent="1">
          <mxGeometry x="800" y="20" width="100" height="800" as="geometry" />
        </mxCell>
        <mxCell id="0G7DkslzxkNjGT_rTtla-6" value="GridWorldConfig" style="shape=umlLifeline;perimeter=lifelinePerimeter;whiteSpace=wrap;html=1;container=1;dropTarget=0;collapsible=0;recursiveResize=0;outlineConnect=0;portConstraint=eastwest;newEdgeStyle={&quot;curved&quot;:0,&quot;rounded&quot;:0};" vertex="1" parent="1">
          <mxGeometry x="950" y="20" width="100" height="790" as="geometry" />
        </mxCell>
        <mxCell id="0G7DkslzxkNjGT_rTtla-7" value="enterParams(alpha, gamma, epsilon, num_episodes)" style="html=1;verticalAlign=bottom;endArrow=block;curved=0;rounded=0;" edge="1" parent="1" source="0G7DkslzxkNjGT_rTtla-2">
          <mxGeometry width="80" relative="1" as="geometry">
            <mxPoint x="40" y="160" as="sourcePoint" />
            <mxPoint x="269.5" y="160" as="targetPoint" />
          </mxGeometry>
        </mxCell>
        <mxCell id="0G7DkslzxkNjGT_rTtla-8" value="launch_app()" style="html=1;verticalAlign=bottom;endArrow=block;curved=0;rounded=0;" edge="1" parent="1" target="0G7DkslzxkNjGT_rTtla-3">
          <mxGeometry width="80" relative="1" as="geometry">
            <mxPoint x="20" y="90" as="sourcePoint" />
            <mxPoint x="249.5" y="90" as="targetPoint" />
          </mxGeometry>
        </mxCell>
        <mxCell id="0G7DkslzxkNjGT_rTtla-10" value="display(Homepage)" style="html=1;verticalAlign=bottom;endArrow=open;dashed=1;endSize=8;curved=0;rounded=0;" edge="1" parent="1" target="0G7DkslzxkNjGT_rTtla-2">
          <mxGeometry relative="1" as="geometry">
            <mxPoint x="270" y="120" as="sourcePoint" />
            <mxPoint x="190" y="120" as="targetPoint" />
          </mxGeometry>
        </mxCell>
        <mxCell id="0G7DkslzxkNjGT_rTtla-11" value="click(Start Q-Learning)" style="html=1;verticalAlign=bottom;endArrow=block;curved=0;rounded=0;" edge="1" parent="1">
          <mxGeometry width="80" relative="1" as="geometry">
            <mxPoint x="19.5" y="200" as="sourcePoint" />
            <mxPoint x="269.5" y="200" as="targetPoint" />
          </mxGeometry>
        </mxCell>
        <mxCell id="0G7DkslzxkNjGT_rTtla-12" value="QAgent" style="shape=umlLifeline;perimeter=lifelinePerimeter;whiteSpace=wrap;html=1;container=1;dropTarget=0;collapsible=0;recursiveResize=0;outlineConnect=0;portConstraint=eastwest;newEdgeStyle={&quot;curved&quot;:0,&quot;rounded&quot;:0};" vertex="1" parent="1">
          <mxGeometry x="1097" y="20" width="100" height="790" as="geometry" />
        </mxCell>
        <mxCell id="0G7DkslzxkNjGT_rTtla-13" value="GridWorld" style="shape=umlLifeline;perimeter=lifelinePerimeter;whiteSpace=wrap;html=1;container=1;dropTarget=0;collapsible=0;recursiveResize=0;outlineConnect=0;portConstraint=eastwest;newEdgeStyle={&quot;curved&quot;:0,&quot;rounded&quot;:0};" vertex="1" parent="1">
          <mxGeometry x="1230" y="20" width="100" height="780" as="geometry" />
        </mxCell>
        <mxCell id="0G7DkslzxkNjGT_rTtla-14" value="POST: initialize_environment(GridWorldInitRequest)" style="html=1;verticalAlign=bottom;endArrow=block;curved=0;rounded=0;" edge="1" parent="1">
          <mxGeometry x="0.0042" width="80" relative="1" as="geometry">
            <mxPoint x="270" y="260" as="sourcePoint" />
            <mxPoint x="589.5" y="260" as="targetPoint" />
            <mxPoint as="offset" />
          </mxGeometry>
        </mxCell>
        <mxCell id="0G7DkslzxkNjGT_rTtla-15" value="&lt;div&gt;grid_config: «create»&amp;nbsp;&lt;span style=&quot;background-color: light-dark(#ffffff, var(--ge-dark-color, #121212)); color: light-dark(rgb(0, 0, 0), rgb(255, 255, 255));&quot;&gt;GridWorldConfig(rows, cols, start_pos, end_pos, obs_pos)&lt;/span&gt;&lt;/div&gt;" style="html=1;verticalAlign=bottom;endArrow=block;curved=0;rounded=0;" edge="1" parent="1">
          <mxGeometry x="0.0016" width="80" relative="1" as="geometry">
            <mxPoint x="590" y="290" as="sourcePoint" />
            <mxPoint x="999.5000000000005" y="290" as="targetPoint" />
            <mxPoint as="offset" />
          </mxGeometry>
        </mxCell>
        <mxCell id="0G7DkslzxkNjGT_rTtla-16" value="&lt;div&gt;grid: «create»&amp;nbsp;&lt;span style=&quot;background-color: light-dark(#ffffff, var(--ge-dark-color, #121212)); color: light-dark(rgb(0, 0, 0), rgb(255, 255, 255));&quot;&gt;GridWorld(grid_config)&lt;/span&gt;&lt;/div&gt;" style="html=1;verticalAlign=bottom;endArrow=block;curved=0;rounded=0;" edge="1" parent="1">
          <mxGeometry x="0.0016" width="80" relative="1" as="geometry">
            <mxPoint x="590" y="330" as="sourcePoint" />
            <mxPoint x="1279.5000000000005" y="330" as="targetPoint" />
            <mxPoint as="offset" />
          </mxGeometry>
        </mxCell>
        <mxCell id="0G7DkslzxkNjGT_rTtla-17" value="agent_config: «create» Agent&lt;span style=&quot;color: light-dark(rgb(0, 0, 0), rgb(255, 255, 255));&quot;&gt;Config(alpha, gamma, epsilon, max_steps, num_ep)&lt;/span&gt;" style="html=1;verticalAlign=bottom;endArrow=block;curved=0;rounded=0;" edge="1" parent="1">
          <mxGeometry width="80" relative="1" as="geometry">
            <mxPoint x="590" y="370" as="sourcePoint" />
            <mxPoint x="849.5000000000005" y="370" as="targetPoint" />
          </mxGeometry>
        </mxCell>
        <mxCell id="0G7DkslzxkNjGT_rTtla-18" value="agent: «create» QAgent&lt;span style=&quot;color: light-dark(rgb(0, 0, 0), rgb(255, 255, 255));&quot;&gt;(grid, agent_config)&lt;/span&gt;" style="html=1;verticalAlign=bottom;endArrow=block;curved=0;rounded=0;" edge="1" parent="1">
          <mxGeometry width="80" relative="1" as="geometry">
            <mxPoint x="590" y="400" as="sourcePoint" />
            <mxPoint x="1146.5" y="400" as="targetPoint" />
          </mxGeometry>
        </mxCell>
        <mxCell id="0G7DkslzxkNjGT_rTtla-20" value="send(json_response(&#39;success&#39;))" style="html=1;verticalAlign=bottom;endArrow=open;dashed=1;endSize=8;curved=0;rounded=0;" edge="1" parent="1">
          <mxGeometry relative="1" as="geometry">
            <mxPoint x="589.5" y="429.9999999999999" as="sourcePoint" />
            <mxPoint x="269.32352941176464" y="429.9999999999999" as="targetPoint" />
          </mxGeometry>
        </mxCell>
        <mxCell id="0G7DkslzxkNjGT_rTtla-21" value="FAST API app" style="shape=umlLifeline;perimeter=lifelinePerimeter;whiteSpace=wrap;html=1;container=1;dropTarget=0;collapsible=0;recursiveResize=0;outlineConnect=0;portConstraint=eastwest;newEdgeStyle={&quot;curved&quot;:0,&quot;rounded&quot;:0};" vertex="1" parent="1">
          <mxGeometry x="390" y="20" width="100" height="800" as="geometry" />
        </mxCell>
        <mxCell id="0G7DkslzxkNjGT_rTtla-22" value="app: «create» FastAPI()" style="html=1;verticalAlign=bottom;endArrow=block;curved=0;rounded=0;" edge="1" parent="1">
          <mxGeometry width="80" relative="1" as="geometry">
            <mxPoint x="270" y="220" as="sourcePoint" />
            <mxPoint x="439.5" y="220" as="targetPoint" />
          </mxGeometry>
        </mxCell>
        <mxCell id="0G7DkslzxkNjGT_rTtla-26" value="Websocket: websocket_train(websocket)" style="html=1;verticalAlign=bottom;endArrow=block;curved=0;rounded=0;" edge="1" parent="1" target="0G7DkslzxkNjGT_rTtla-4">
          <mxGeometry width="80" relative="1" as="geometry">
            <mxPoint x="270" y="480" as="sourcePoint" />
            <mxPoint x="350" y="480" as="targetPoint" />
          </mxGeometry>
        </mxCell>
        <mxCell id="0G7DkslzxkNjGT_rTtla-27" value="Alternative" style="shape=umlFrame;whiteSpace=wrap;html=1;pointerEvents=0;" vertex="1" parent="1">
          <mxGeometry x="260" y="450" width="340" height="180" as="geometry" />
        </mxCell>
        <mxCell id="0G7DkslzxkNjGT_rTtla-30" value="if not self.agent" style="text;html=1;align=center;verticalAlign=middle;resizable=0;points=[];autosize=1;strokeColor=none;fillColor=none;" vertex="1" parent="1">
          <mxGeometry x="270" y="480" width="100" height="30" as="geometry" />
        </mxCell>
        <mxCell id="0G7DkslzxkNjGT_rTtla-31" value="else" style="text;html=1;align=center;verticalAlign=middle;resizable=0;points=[];autosize=1;strokeColor=none;fillColor=none;" vertex="1" parent="1">
          <mxGeometry x="270" y="560" width="50" height="30" as="geometry" />
        </mxCell>
        <mxCell id="0G7DkslzxkNjGT_rTtla-32" value="" style="endArrow=none;dashed=1;html=1;dashPattern=1 3;strokeWidth=2;rounded=0;exitX=0.003;exitY=0.604;exitDx=0;exitDy=0;exitPerimeter=0;entryX=1.013;entryY=0.596;entryDx=0;entryDy=0;entryPerimeter=0;" edge="1" parent="1" source="0G7DkslzxkNjGT_rTtla-27" target="0G7DkslzxkNjGT_rTtla-27">
          <mxGeometry width="50" height="50" relative="1" as="geometry">
            <mxPoint x="380" y="570" as="sourcePoint" />
            <mxPoint x="430" y="520" as="targetPoint" />
          </mxGeometry>
        </mxCell>
        <mxCell id="0G7DkslzxkNjGT_rTtla-33" value="websocket.close(code=1008)" style="html=1;verticalAlign=bottom;endArrow=open;dashed=1;endSize=8;curved=0;rounded=0;" edge="1" parent="1" target="0G7DkslzxkNjGT_rTtla-3">
          <mxGeometry relative="1" as="geometry">
            <mxPoint x="590" y="520" as="sourcePoint" />
            <mxPoint x="520" y="520" as="targetPoint" />
          </mxGeometry>
        </mxCell>
        <mxCell id="0G7DkslzxkNjGT_rTtla-35" value="await websocket.accept()" style="html=1;verticalAlign=bottom;endArrow=open;dashed=1;endSize=8;curved=0;rounded=0;" edge="1" parent="1" target="0G7DkslzxkNjGT_rTtla-3">
          <mxGeometry relative="1" as="geometry">
            <mxPoint x="590" y="590" as="sourcePoint" />
            <mxPoint x="510" y="590" as="targetPoint" />
          </mxGeometry>
        </mxCell>
        <mxCell id="0G7DkslzxkNjGT_rTtla-36" value="train_one_episode()" style="html=1;verticalAlign=bottom;endArrow=block;curved=0;rounded=0;" edge="1" parent="1">
          <mxGeometry width="80" relative="1" as="geometry">
            <mxPoint x="590" y="690" as="sourcePoint" />
            <mxPoint x="1146.5000000000005" y="690" as="targetPoint" />
          </mxGeometry>
        </mxCell>
        <mxCell id="0G7DkslzxkNjGT_rTtla-37" value="latest_path, episode_reward" style="html=1;verticalAlign=bottom;endArrow=open;dashed=1;endSize=8;curved=0;rounded=0;" edge="1" parent="1">
          <mxGeometry relative="1" as="geometry">
            <mxPoint x="1150" y="720" as="sourcePoint" />
            <mxPoint x="588.8333333333333" y="720" as="targetPoint" />
          </mxGeometry>
        </mxCell>
        <mxCell id="0G7DkslzxkNjGT_rTtla-38" value="Loop" style="shape=umlFrame;whiteSpace=wrap;html=1;pointerEvents=0;" vertex="1" parent="1">
          <mxGeometry x="560" y="660" width="610" height="80" as="geometry" />
        </mxCell>
        <mxCell id="0G7DkslzxkNjGT_rTtla-39" value="websocket.send_json(message)" style="html=1;verticalAlign=bottom;endArrow=block;curved=0;rounded=0;" edge="1" parent="1" source="0G7DkslzxkNjGT_rTtla-4">
          <mxGeometry width="80" relative="1" as="geometry">
            <mxPoint x="471.17" y="750" as="sourcePoint" />
            <mxPoint x="270.0033333333333" y="750" as="targetPoint" />
          </mxGeometry>
        </mxCell>
      </root>
    </mxGraphModel>
  </diagram>
</mxfile>
